# xmcd CD database file generated by MAGIX_Freedb v0.9beta0
# 
# Track frame offsets:
#      150
#      14533
#      27807
#      40432
#      55881
#      65056
#      76547
#      90158
#      110425
#      124104
#      134216
#      152540
#      167234
#      180426
#      192037
#      203581
# 
# Disc length: 2879 seconds
# 
# Revision: 0 
# Processed by: cddbd v1.4PL0 Copyright (c) Steve Scherf et al.
# Submitted via: MAGIX_Freedb v0.9beta0
# 
DISCID=cb0b3d10
DTITLE=Various Artist - Original Country Feelings CD-2
DYEAR=1900
DGENRE=
TTITLE0=Bellamy Brothers - If I Said You Have A Beautiful Body
TTITLE1=George Morgan - Red Rose From The Blue Side Of Town
TTITLE2=John Denver - Forest Lawn
TTITLE3=Olivia Newton John - Help Me Make It Through The Night
TTITLE4=Nashville Pickers - Kentucky Buggy
TTITLE5=Patty Young - I've Love And Lost Again
TTITLE6=Curtis Young - Save The Last Dance For Me
TTITLE7=Rebecca Holden - One Day At Time
TTITLE8=Glen Campbell - Rhinestone Cowboy
TTITLE9=Faron Young - Hallo Walls
TTITLE10=Leilah Safka u. Ricky Dandell - Concrete And Steel
TTITLE11=Nashville Pickers - Letter To Heaven
TTITLE12=Freddy Fender - Wasted Days And Wasted Nights
TTITLE13=Peter Hinnen - Good Night Ladies
TTITLE14=Frankie Lane - Love Is A Golden Ring
TTITLE15=Lynn Anderson - Stand By Your Man
EXTD=
EXTT0=
EXTT1=
EXTT2=
EXTT3=
EXTT4=
EXTT5=
EXTT6=
EXTT7=
EXTT8=
EXTT9=
EXTT10=
EXTT11=
EXTT12=
EXTT13=
EXTT14=
EXTT15=
PLAYORDER=
